<svg id="svg" width="24" height="16" fill="#000000">
	<rect id="background" x="0" y="0" width="24" height="16" fill="#000000"/>
	<g id="path-1">
		<g id="path-2">
			<path d="
				M 7,13
				A 1,1 0 0,0 8,14
				L 9,14
				A 1,1 0 0,1 9,16
				L 8,16
				A 3,3 0 0,1 5,13
				A 2,2 0 0,1 3,11
				L 3,9
				A 1,1 0 0,0 2,10
				L 2,12
				A 1,1 0 0,1 0,12
				L 0,10
				A 3,3 0 0,1 3,7
				L 3,6
				A 2,2 0 0,1 5,4
				L 7.5,4
				L 4.708,1.208
				A 0.707,0.707 0 0,1 5.708,0.208
				L 9.5,4
				L 14.5,4
				L 18.292,0.208
				A 0.707,0.707 0 0,1 19.292,1.208
				L 16.5,4
				L 19,4
				A 2,2 0 0,1 21,6
				L 21,7
				A 3,3 0 0,1 24,10
				L 24,12
				A 1,1 0 0,1 22,12
				L 22, 10
				A 1,1 0 0,0 21,9
				L 21,11
				A 2,2 0 0,1 19,13
				A 3,3 0 0,1 16,16
				L 15,16
				A 1,1 0 0,1 15,14
				L 16,14
				A 1,1 0 0,0 17,13
				L 7,13
				Z" fill="#ffffff"/>
			<circle r="1.5" cx="8.5" cy="7.5" fill="#000000"/>
			<circle r="1.5" cx="15.5" cy="7.5" fill="#000000"/>
		</g>
	</g>
</svg>
