<svg id="svg" width="24" height="16" fill="#000000">
	<rect id="background" x="0" y="0" width="24" height="16" fill="#000000"/>
	<g id="path-1">
		<g id="path-2">
			<path d="
				M 11,13
				C 8,13 6,14 8,16
				C 4,13 8,11 10,11
				L 10,9
				C 6,9 0,9 0,5
				L 0,4
				L 10,4
				L 11,3
				L 11,1
				L 10,0
				L 14,0
				L 13,1
				L 13,3
				L 14,4
				L 24,4
				L 24,5
				C 24,9 18,9 14,9
				L 14,11
				C 16,11 20,13 16,16
				C 18,14 16,13 13,13
				L 13,14
				L 14,15
				L 10,15
				L 11,14
				Z" fill="#ffffff"/>
		</g>
	</g>
</svg>
